<svg xmlns="http://www.w3.org/2000/svg" viewBox="0 0 585 585" width="585" height="585">
	<defs>
		<clipPath clipPathUnits="userSpaceOnUse" id="cp1">
			<path d="M-577 -787L4507 -787L4507 1237L-577 1237L-577 -787Z" />
		</clipPath>
		<linearGradient id="grd1" gradientUnits="userSpaceOnUse"  x1="145.046" y1="55.96" x2="413.993" y2="619.475">
			<stop offset="0" stop-color="#fdc044"  />
			<stop offset="0.01" stop-color="#fdc044"  />
			<stop offset="0.469" stop-color="#ff0021"  />
			<stop offset="1" stop-color="#ff0021"  />
		</linearGradient>
	</defs>
	<style>
		tspan { white-space:pre }
		.shp0 { fill: url(#grd1) } 
	</style>
	<g id="Clip-Path: Page 1" clip-path="url(#cp1)">
		<g id="Page 1">
			<path id="Path 7" fill-rule="evenodd" class="shp0" d="M250.83 6C275.01 6 299.17 6.4 323.43 6.4C346.74 6.13 368.46 14.37 380.12 33.42C388.57 45.97 394.59 60 397.87 74.77C357.34 59.65 101.7 47.46 74.94 96.21C73.6 101.09 72.54 106.05 71.77 111.05C72.21 106.6 72.91 102.17 73.88 97.8C88.98 43.5 144.61 9.05 205.28 6.67C220.49 6.16 235.66 6 250.83 6ZM434.18 77.4C448.07 77.4 459.34 88.67 459.35 102.57C459.35 116.46 448.08 127.74 434.18 127.74L434.15 127.74C420.25 127.73 409 116.46 409 102.57L409.01 102.58C409 88.68 420.27 77.41 434.17 77.4L434.18 77.4ZM489 80.86C519.12 139.41 529.61 206.1 518.94 271.08C505.43 357.19 474.43 434.54 401.05 487.54C390.83 494.98 380.01 501.57 368.7 507.21C377.25 507.24 383.83 507.67 383.83 507.67C394.42 513.04 403.18 521.43 409 531.78C405.21 528.31 400 526.83 394.96 527.79C392.01 528.87 389.9 531.48 389.48 534.59C432.98 534.09 460.1 531.01 470.18 525.4C470.33 525.39 470.46 525.35 470.58 525.27C470.7 525.2 470.84 525.16 470.98 525.14C471.18 525.11 471.39 525.09 471.59 525.09C472.87 524.98 474.05 525.77 474.43 526.99C476.44 532.9 477.25 539.15 476.82 545.37C476.81 552.22 474.58 558.88 470.46 564.35C470.22 564.46 470 564.6 469.79 564.75C469.58 564.89 469.36 565.02 469.13 565.14C453.68 569.66 426.89 571.94 389.42 571.94L389.4 571.95C301.22 571.95 179.35 559.44 144.09 555.61C143.07 555.51 142.19 554.91 141.7 554.02C141.3 553.25 141.23 552.35 141.49 551.53C141.75 550.76 142.3 550.13 143.03 549.78L151.56 545.11C160.62 546.14 214.5 552.16 276.11 556.57C274.76 547.36 272.58 538.75 270.52 537.47L269.11 537.39C265.01 538.73 258.8 551.37 258.8 551.37C258.8 551.37 258.8 540.23 254.12 536.49L248.14 536.1C242.98 539.66 238.6 544.23 235.24 549.52C236.86 544.99 237.51 540.17 237.14 535.37C208.27 533.42 185.89 531.55 177.69 530.84L185.16 526.74C185.75 526.52 186.38 526.43 187.01 526.47L192 526.81C201.27 527.45 210.35 528.06 219.23 528.63C224.22 520.94 230.92 514.49 238.79 509.79C218.04 500.45 204.33 499.63 188.85 516.14C184.12 522.15 178.04 526.95 171.11 530.18C163.69 529.65 140.11 527.26 134.81 523.82C127.39 518.52 342.77 258.89 360.25 237.69C360.45 238.24 360.82 238.7 361.31 239.02C385.95 263.39 418.54 266.04 449.26 250.41C479.2 235.31 491.11 209.06 490.86 175.96C490.7 149.11 486.23 122.45 477.61 97.02C478.36 90.02 482.67 83.91 489 80.86ZM327.94 183.05C334.01 183.05 336.26 189.95 341.72 206.42C342.86 209.81 344.28 213.09 345.96 216.24C332.19 234.79 317.35 254.65 301.72 274.79C212.16 390.82 106.2 523.82 110.96 531.76C114.95 539.74 135.34 543.15 144.88 544.48L141.96 546.07C126.33 553.48 110.7 561.7 94.54 568.58C87.16 571.86 78.36 578.48 70.82 578.48C68.59 578.51 66.41 577.83 64.61 576.54C55.86 570.18 61.95 556.14 63.55 545.81C86.86 388.43 167.92 270.27 307.01 192.38C317.51 186.47 323.67 183.05 327.94 183.05ZM234.43 529.57C233.6 528.78 232.61 528.17 231.53 527.79C228.47 526.92 225.2 527.29 222.42 528.83C226.45 529.08 230.44 529.33 234.41 529.56L234.43 529.57ZM391.27 549.47C389.28 546.49 387.05 543.67 384.61 541.04L377.63 541.04C374.93 541.04 372.18 541.04 369.42 541.01C368.33 544.34 367.76 547.81 367.72 551.31C365.91 547.68 363.81 544.21 361.43 540.93C358.95 540.9 356.46 540.85 353.96 540.81C351.98 546.98 350.64 553.33 349.97 559.78C349.8 553.25 348.58 546.79 346.36 540.64C324.83 540.14 302.49 539.14 281.31 538C278.74 543.87 277.22 550.14 276.82 556.54C314.08 559.27 354.19 561.33 388.88 561.33L388.9 561.33C425.06 561.33 450.63 559.05 464.92 554.55C471.49 548.8 472.84 539.1 468.1 531.76C467.74 531.13 467.06 530.74 466.33 530.77C464.96 530.95 463.63 531.42 462.45 532.17L461.74 532.54C451.78 537.7 427.42 540.54 389.34 541C389.67 543.89 390.32 546.73 391.27 549.47ZM261.89 81.32C314.66 81.32 366.31 84.25 397.87 90.12C397.91 90.84 397.82 91.55 397.6 92.24C390.99 117.41 361.58 130.39 332.97 130.92C311.65 131.31 290.28 131.25 268.9 131.18C247.52 131.12 226.09 131.05 204.75 131.45C195.86 131.6 186.91 131.34 177.94 131.08C141.22 130.01 104.44 128.94 72.29 156.62C69.37 148.93 69.9 132.24 71.23 118.2L71.23 118.47C77.85 90.39 163.15 82.18 248.72 81.38C253.11 81.34 257.5 81.32 261.89 81.32ZM72.02 110.79C71.76 113.17 71.49 115.55 71.23 118.2C71.22 115.71 71.49 113.22 72.02 110.79ZM300.28 524.24C297.44 524.24 294.61 524.15 291.77 523.98L291.65 524.08C288.94 526.49 286.54 529.23 284.52 532.25C305.6 533.21 325.17 533.89 343.23 534.28L343.26 534.28C341 530.46 338.16 527.02 334.85 524.08C333.65 523.05 332.57 521.9 331.62 520.63C321.34 523.03 310.82 524.24 300.28 524.24Z" />
		</g>
	</g>
</svg>